<?xml version="1.0" encoding="utf-8"?><svg version="1.1" id="Layer_1" xmlns="http://www.w3.org/2000/svg" xmlns:xlink="http://www.w3.org/1999/xlink" x="0px" y="0px" viewBox="0 0 122.88 122.88" style="enable-background:new 0 0 122.88 122.88" xml:space="preserve"><style type="text/css">.st0{fill-rule:evenodd;clip-rule:evenodd;}</style><g><path class="st0" d="M61.44,0c33.93,0,61.44,27.51,61.44,61.44c0,33.93-27.51,61.44-61.44,61.44S0,95.37,0,61.44 C0,27.51,27.51,0,61.44,0L61.44,0z M61.17,61.6c1.76,0,3.18,1.42,3.18,3.18c0,1.76-1.42,3.18-3.18,3.18 c-1.76,0-3.18-1.42-3.18-3.18C57.99,63.03,59.42,61.6,61.17,61.6L61.17,61.6z M61.2,53.28c6.34,0,11.47,5.14,11.47,11.47 c0,6.34-5.14,11.47-11.47,11.47c-6.33,0-11.47-5.14-11.47-11.47C49.73,58.41,54.87,53.28,61.2,53.28L61.2,53.28z M14.78,44.57 c4.45-12.31,13.52-22.7,24.9-28.01c15.63-7.29,34.61-7.75,50.69,4.15c9.48,7.01,12.94,12.76,17.67,22.95 c3.58,9.03,0.64,11.97-10.87,6.9c-23.79-11.77-47.84-11.24-72.12,0C16.09,56.41,11.06,51.53,14.78,44.57L14.78,44.57z M75.9,109.05 c16.62-5.23,26.32-15.81,32.27-29.3c3.87-10.43-8.26-13.97-12.52-7.1c-2.55,5.06-5.59,9.4-9.55,12.77 c-6.2,5.27-15.18,6.23-16.58,16.16C68.79,106.74,69.97,111.38,75.9,109.05L75.9,109.05z M47.26,109.05 c-16.62-5.23-26.32-15.81-32.27-29.3c-3.87-10.43,8.26-13.97,12.52-7.1c2.55,5.06,5.59,9.4,9.55,12.77 c6.2,5.27,15.18,6.23,16.58,16.16C54.37,106.74,53.19,111.38,47.26,109.05L47.26,109.05z"/></g></svg>